PathFileType	4	(X/Y/Z)	traj.trc
DataRate	CameraRate	NumFrames	NumMarkers	Units	OrigDataRate	OrigDataStartFrame	OrigNumFrames
30.00	30.00	125	1	mm	30.00	1	125
Frame#	Time	wrist		
		X1	Y1	Z1

0	0.0	261.5969633264149	-73.7978484942428	200.0
1	0.020161290322580645	261.5969633264149	-73.7978484942428	200.0
2	0.04032258064516129	261.72535601340314	-73.77099031741892	200.0
3	0.06048387096774194	262.3460522530722	-73.64069356066707	200.0
4	0.08064516129032258	263.898796516753	-73.31143756045125	200.0
5	0.10080645161290322	266.7613678429201	-72.69203885566952	200.0
6	0.12096774193548387	271.2506060564516	-71.6881753544111	200.0
7	0.1411290322580645	277.6230438528622	-70.19466609773642	200.0
8	0.16129032258064516	286.0751417816802	-68.0886110018426	200.0
9	0.1814516129032258	296.74308389227895	-65.22423079151949	200.0
10	0.20161290322580644	309.7021212089338	-61.43001233351234	200.0
11	0.2217741935483871	324.96553651363405	-56.508553959424745	200.0
12	0.24193548387096775	342.48342701246855	-50.23931209413436	200.0
13	0.2620967741935484	362.1416370693046	-42.3842663761628	200.0
14	0.282258064516129	383.7612960694146	-32.69633826598235	200.0
15	0.3024193548387097	407.09950294482326	-20.930214133282135	200.0
16	0.3225806451612903	431.85172902239674	-6.855039737010031	200.0
17	0.34274193548387094	457.6564705301082	9.731722834356873	200.0
18	0.3629032258064516	484.1025649508729	28.99013772999632	200.0
19	0.38306451612903225	510.73939441357135	51.02431050380315	200.0
20	0.4032258064516129	537.0899476030463	75.87059765564595	200.0
21	0.42338709677419356	562.6664222593515	103.48850057757409	200.0
22	0.4435483870967742	586.9877542705929	133.75511054071092	200.0
23	0.4637096774193548	609.5981923552531	166.46375544995536	200.0
24	0.4838709677419355	630.085835076704	201.3272023589192	200.0
25	0.5040322580645161	648.0999397833596	237.98541654077474	200.0
26	0.5241935483870968	663.3658209388791	276.0175030811068	200.0
27	0.5443548387096774	675.6962838519707	314.9571014320659	200.0
28	0.564516129032258	684.9987787104362	354.31020834961674	200.0
29	0.5846774193548387	691.2777836596249	393.5742053319332	200.0
30	0.6048387096774194	694.6322974269251	432.25678677173227	200.0
31	0.625	695.2486985636648	469.89353300846597	200.0
32	0.6451612903225806	693.3895670558447	506.0630404513357	200.0
33	0.6653225806451613	689.3793288965624	540.3987863083383	200.0
34	0.6854838709677419	683.5877509980054	572.5972347158242	200.0
35	0.7056451612903225	676.4123728579077	602.4220452839621	200.0
36	0.7258064516129032	668.2609177654447	629.7045856707434	200.0
37	0.7459677419354839	659.5345977449242	654.3412436454961	200.0
38	0.7661290322580645	650.6130392894305	676.2882571342211	200.0
39	0.7862903225806451	641.8413414248182	695.5549195966734	200.0
40	0.8064516129032258	633.5195628203288	712.1960698559711	200.0
41	0.8266129032258064	625.8947442191198	726.3047459310071	200.0
42	0.8467741935483871	619.1554217485557	738.0057832576413	200.0
43	0.8669354838709677	613.4284811680106	747.4509838617195	200.0
44	0.8870967741935484	608.7781383641022	754.8162903231917	200.0
45	0.907258064516129	605.2067942152735	760.3011817842438	200.0
46	0.9274193548387096	602.6574826153878	764.1302824663463	200.0
47	0.9475806451612903	601.0175857528949	766.5569484164237	200.0
48	0.967741935483871	600.1234074798447	767.8683863593233	200.0
49	0.9879032258064516	599.7650543678856	768.3916684189322	200.0
50	1.0080645161290323	599.6908630316253	768.4998427659757	200.0
51	1.0282258064516128	599.6908630316253	768.4998427659757	200.0
52	1.0483870967741935	599.6908630316253	768.4998427659757	200.0
53	1.0685483870967742	599.6908630316253	768.4998427659757	200.0
54	1.0887096774193548	599.6908630316253	768.4998427659757	200.0
55	1.1088709677419355	599.6908630316253	768.4998427659757	200.0
56	1.129032258064516	599.6908630316253	768.4998427659757	200.0
57	1.1491935483870968	599.6908630316253	768.4998427659757	200.0
58	1.1693548387096775	599.6908630316253	768.4998427659757	200.0
59	1.189516129032258	599.6908630316253	768.4998427659757	200.0
60	1.2096774193548387	599.6908630316253	768.4998427659757	200.0
61	1.2298387096774193	599.6908630316253	768.4998427659757	200.0
62	1.25	599.6908630316253	768.4998427659757	200.0
63	1.2701612903225805	599.6908630316253	768.4998427659757	200.0
64	1.2903225806451613	599.6908630316253	768.4998427659757	200.0
65	1.310483870967742	599.6908630316253	768.4998427659757	200.0
66	1.3306451612903225	599.6908630316253	768.4998427659757	200.0
67	1.3508064516129032	599.6908630316253	768.4998427659757	200.0
68	1.3709677419354838	599.6908630316253	768.4998427659757	200.0
69	1.3911290322580645	599.6908630316253	768.4998427659757	200.0
70	1.411290322580645	599.6908630316253	768.4998427659757	200.0
71	1.4314516129032258	599.6908630316253	768.4998427659757	200.0
72	1.4516129032258065	599.6908630316253	768.4998427659757	200.0
73	1.471774193548387	599.6908630316253	768.4998427659757	200.0
74	1.4919354838709677	599.6908630316253	768.4998427659757	200.0
75	1.5120967741935483	599.6908630316253	768.4998427659757	200.0
76	1.532258064516129	599.6908630316253	768.4998427659757	200.0
77	1.5524193548387097	599.7650543678856	768.3916684189322	200.0
78	1.5725806451612903	600.1234074798447	767.8683863593232	200.0
79	1.592741935483871	601.017585752895	766.5569484164236	200.0
80	1.6129032258064515	602.6574826153878	764.1302824663463	200.0
81	1.6330645161290323	605.2067942152737	760.3011817842436	200.0
82	1.6532258064516128	608.7781383641023	754.8162903231915	200.0
83	1.6733870967741935	613.4284811680109	747.4509838617192	200.0
84	1.6935483870967742	619.1554217485559	738.0057832576408	200.0
85	1.7137096774193548	625.8947442191201	726.3047459310067	200.0
86	1.7338709677419355	633.519562820329	712.1960698559707	200.0
87	1.754032258064516	641.8413414248183	695.5549195966728	200.0
88	1.7741935483870968	650.6130392894307	676.2882571342204	200.0
89	1.7943548387096773	659.5345977449243	654.3412436454958	200.0
90	1.814516129032258	668.2609177654449	629.704585670743	200.0
91	1.8346774193548387	676.4123728579078	602.4220452839618	200.0
92	1.8548387096774193	683.5877509980055	572.5972347158239	200.0
93	1.875	689.3793288965624	540.3987863083379	200.0
94	1.8951612903225805	693.3895670558449	506.063040451335	200.0
95	1.9153225806451613	695.2486985636648	469.8935330084652	200.0
96	1.935483870967742	694.6322974269251	432.25678677173147	200.0
97	1.9556451612903225	691.2777836596248	393.57420533193283	200.0
98	1.9758064516129032	684.9987787104362	354.31020834961646	200.0
99	1.9959677419354838	675.6962838519707	314.95710143206566	200.0
100	2.0161290322580645	663.365820938879	276.01750308110644	200.0
101	2.036290322580645	648.0999397833596	237.98541654077445	200.0
102	2.0564516129032255	630.0858350767038	201.32720235891884	200.0
103	2.0766129032258065	609.5981923552529	166.46375544995493	200.0
104	2.096774193548387	586.9877542705926	133.75511054071055	200.0
105	2.1169354838709675	562.6664222593512	103.48850057757369	200.0
106	2.1370967741935485	537.0899476030459	75.87059765564553	200.0
107	2.157258064516129	510.73939441357106	51.024310503802894	200.0
108	2.1774193548387095	484.10256495087253	28.990137729996007	200.0
109	2.1975806451612905	457.65647053010787	9.73172283435656	200.0
110	2.217741935483871	431.8517290223965	-6.855039737010173	200.0
111	2.2379032258064515	407.09950294482286	-20.930214133282306	200.0
112	2.258064516129032	383.76129606941424	-32.69633826598249	200.0
113	2.278225806451613	362.14163706930424	-42.384266376162884	200.0
114	2.2983870967741935	342.4834270124682	-50.23931209413456	200.0
115	2.318548387096774	324.96553651363365	-56.50855395942489	200.0
116	2.338709677419355	309.70212120893336	-61.43001233351248	200.0
117	2.3588709677419355	296.74308389227855	-65.22423079151963	200.0
118	2.379032258064516	286.07514178168003	-68.08861100184265	200.0
119	2.3991935483870965	277.623043852862	-70.1946660977365	200.0
120	2.4193548387096775	271.2506060564514	-71.68817535441113	200.0
121	2.439516129032258	266.76136784292	-72.69203885566955	200.0
122	2.4596774193548385	263.898796516753	-73.31143756045125	200.0
123	2.4798387096774195	262.3460522530721	-73.6406935606671	200.0
124	2.5	261.72535601340314	-73.77099031741895	200.0
